<?xml version="1.0" encoding="utf-8"?>
<!-- Generator: Adobe Illustrator 24.1.1, SVG Export Plug-In . SVG Version: 6.00 Build 0)  -->
<svg version="1.1" id="Layer_1" xmlns="http://www.w3.org/2000/svg" xmlns:xlink="http://www.w3.org/1999/xlink" x="0px" y="0px"
	 viewBox="0 0 54.65 167.99" style="enable-background:new 0 0 54.65 167.99;" xml:space="preserve">
<style type="text/css">
	.st0{fill:#1B2A40;}
</style>
<g>
	<g>
		<g>
			<path class="st0" d="M29.23,126.36V41.63c0-14.44,4.08-21.75,11.78-24.02c-1.76-0.45-3.62-0.68-5.72-0.68
				c-11.27,0-17.39,7.08-17.39,24.7v84.73c0,17.62,6.12,24.7,17.39,24.7c2.1,0,3.96-0.23,5.72-0.68
				C33.3,148.11,29.23,140.81,29.23,126.36z"/>
		</g>
	</g>
	<g>
		<g>
			<path class="st0" d="M46.29,114.08V53.92c0-10.26,2.9-15.44,8.36-17.05c-1.25-0.32-2.57-0.48-4.06-0.48
				c-8,0-12.35,5.03-12.35,17.53v60.16c0,12.51,4.34,17.53,12.35,17.53c1.49,0,2.82-0.16,4.06-0.48
				C49.18,129.52,46.29,124.33,46.29,114.08z"/>
		</g>
	</g>
	<g>
		<g>
			<path class="st0" d="M11.33,129.42V38.57c0-21.69,10.25-35.97,29.62-38.23C39.14,0.11,37.27,0,35.29,0C12.23,0,0,14.84,0,38.57
				v90.85c0,23.73,12.23,38.57,35.29,38.57c1.98,0,3.85-0.11,5.66-0.34C21.58,165.39,11.33,151.11,11.33,129.42z"/>
		</g>
	</g>
</g>
</svg>
