<svg xmlns="http://www.w3.org/2000/svg" xmlns:xlink="http://www.w3.org/1999/xlink" viewBox="0 0 428.36 427.87"><defs><style>.cls-1{isolation:isolate;}.cls-2{fill:#0d1c38;}.cls-15,.cls-3,.cls-4{fill:#004fff;}.cls-3,.cls-9{opacity:0.43;}.cls-4{opacity:0.42;}.cls-5{fill:none;stroke:#fff;stroke-miterlimit:10;stroke-width:0.75px;opacity:0.46;}.cls-6{fill:url(#linear-gradient);}.cls-10,.cls-11,.cls-12,.cls-13,.cls-14,.cls-7,.cls-8,.cls-9{fill:#f2f2f2;mix-blend-mode:overlay;}.cls-8{opacity:0.62;}.cls-10{opacity:0.66;}.cls-11{opacity:0.47;}.cls-12{opacity:0.59;}.cls-13{opacity:0.25;}.cls-14{opacity:0.38;}.cls-16{fill:url(#linear-gradient-2);}</style><linearGradient id="linear-gradient" x1="200.54" y1="172.1" x2="247.68" y2="172.1" gradientTransform="translate(396.21 -52.01) rotate(90)" gradientUnits="userSpaceOnUse"><stop offset="0.24" stop-color="#004fff"/><stop offset="0.32" stop-color="#004df8"/><stop offset="0.44" stop-color="#0249e6"/><stop offset="0.57" stop-color="#0441c7"/><stop offset="0.72" stop-color="#06369c"/><stop offset="0.88" stop-color="#0a2867"/><stop offset="1" stop-color="#0d1c38"/></linearGradient><linearGradient id="linear-gradient-2" x1="169.36" y1="173.37" x2="216.51" y2="173.37" gradientTransform="translate(254.18 427.89) rotate(-135)" gradientUnits="userSpaceOnUse"><stop offset="0.24" stop-color="#004fff"/><stop offset="0.57" stop-color="#0250fe"/><stop offset="0.69" stop-color="#0953fd"/><stop offset="0.77" stop-color="#1457f9"/><stop offset="0.84" stop-color="#255ef5"/></linearGradient></defs><g class="cls-1"><g id="Layer_1" data-name="Layer 1"><path class="cls-2" d="M195.74,13.61C130.16-17.26,51.18,5.82,14.5,68.34-2.2,96.8-8,128.89,16.3,158.72,66.19,220,145.74,148.5,167.54,236.89c21.45,87-60.06,188.74,61.26,191S434,326.36,428.07,248.42s-125,1.47-133.09-116.91C291,72.75,243,35.86,195.74,13.61Z"/><circle class="cls-3" cx="102.69" cy="158.52" r="11.39"/><circle class="cls-3" cx="102.69" cy="158.52" r="19.93"/><circle class="cls-4" cx="278.67" cy="211.15" r="8.91"/><circle class="cls-4" cx="278.67" cy="211.15" r="12.19"/><polyline class="cls-5" points="51.34 117.57 89.21 84.97 163.45 28.57 102.69 158.52 209.35 134.28 278.67 211.15 220.43 259.96 214.18 371.3 323.71 345.37 351.2 257.24"/><circle class="cls-6" cx="224.11" cy="172.1" r="23.57"/><circle class="cls-7" cx="249.33" cy="199.93" r="14.82"/><circle class="cls-7" cx="240.34" cy="134.28" r="14.82"/><circle class="cls-7" cx="260.17" cy="234.88" r="13.08"/><circle class="cls-7" cx="227.26" cy="101.72" r="13.08"/><circle class="cls-7" cx="272.07" cy="266.64" r="8.84"/><circle class="cls-7" cx="207.41" cy="75.14" r="8.84"/><circle class="cls-7" cx="187.07" cy="53.71" r="8.84"/><circle class="cls-7" cx="159.77" cy="64.24" r="8.84"/><circle class="cls-8" cx="137.25" cy="68.24" r="8.84"/><circle class="cls-9" cx="114.08" cy="79.8" r="8.84"/><circle class="cls-10" cx="122.62" cy="101.72" r="8.84"/><circle class="cls-11" cx="122.62" cy="122.73" r="8.84"/><circle class="cls-12" cx="99.02" cy="108.04" r="8.84"/><circle class="cls-13" cx="73.92" cy="112.4" r="8.84"/><circle class="cls-7" cx="278.67" cy="294.06" r="8.84"/><circle class="cls-7" cx="299.09" cy="273.79" r="8.84"/><circle class="cls-14" cx="323.71" cy="263.64" r="8.84"/><circle class="cls-9" cx="299.09" cy="304.11" r="8.84"/><circle class="cls-14" cx="314.87" cy="321.49" r="8.84"/><circle class="cls-14" cx="274.99" cy="321.49" r="8.84"/><circle class="cls-14" cx="251.33" cy="341.69" r="8.84"/><circle class="cls-4" cx="278.67" cy="211.15" r="8.91"/><line class="cls-5" x1="220.43" y1="259.96" x2="323.71" y2="345.37"/><circle class="cls-15" cx="51.34" cy="117.57" r="3.68"/><circle class="cls-15" cx="89.21" cy="84.97" r="3.68"/><circle class="cls-15" cx="102.69" cy="158.52" r="3.68"/><circle class="cls-15" cx="163.45" cy="28.57" r="3.68"/><circle class="cls-15" cx="209.35" cy="134.28" r="3.68"/><circle class="cls-15" cx="351.2" cy="257.24" r="3.68"/><circle class="cls-15" cx="214.18" cy="371.3" r="3.68"/><circle class="cls-15" cx="323.71" cy="345.37" r="3.68"/><circle class="cls-15" cx="278.67" cy="211.15" r="3.68"/><circle class="cls-15" cx="220.43" cy="259.96" r="3.68"/><circle class="cls-16" cx="240.34" cy="168.88" r="23.57"/></g></g></svg>